{
  "accessors": [
    {
      "bufferView": 2,
      "componentType": 5126,
      "count": 145,
      "max": [
        0.14204999804496765,
        -0.33037900924682617,
        1
      ],
      "min": [
        -0.13652899861335754,
        -0.60895800590515137,
        0.94450598955154419
      ],
      "type": "VEC3"
    },
    {
      "bufferView": 2,
      "byteOffset": 1740,
      "componentType": 5126,
      "count": 145,
      "max": [
        0.94950199127197266,
        0.94950199127197266,
        1
      ],
      "min": [
        -0.94950199127197266,
        -0.94950199127197266,
        0.31376004219055176
      ],
      "type": "VEC3"
    },
    {
      "bufferView": 3,
      "componentType": 5126,
      "count": 145,
      "max": [
        0.30233940482139587,
        -0.31322124600410461,
        0.94787836074829102,
        1
      ],
      "min": [
        -0.36508762836456299,
        -0.99999040365219116,
        -0.94786876440048218,
        1
      ],
      "type": "VEC4"
    },
    {
      "bufferView": 1,
      "componentType": 5126,
      "count": 145,
      "max": [
        0.60220199823379517,
        0.16079500317573547
      ],
      "min": [
        0.52832001447677612,
        0.086914099752902985
      ],
      "type": "VEC2"
    },
    {
      "bufferView": 0,
      "componentType": 5125,
      "count": 792,
      "max": [
        144
      ],
      "min": [
        0
      ],
      "type": "SCALAR"
    },
    {
      "bufferView": 2,
      "byteOffset": 3480,
      "componentType": 5126,
      "count": 56,
      "max": [
        0.15814299881458282,
        -0.31664600968360901,
        0.94450598955154419
      ],
      "min": [
        -0.15262199938297272,
        -0.62269002199172974,
        0.77802497148513794
      ],
      "type": "VEC3"
    },
    {
      "bufferView": 2,
      "byteOffset": 4152,
      "componentType": 5126,
      "count": 56,
      "max": [
        1,
        0.98480778932571411,
        1
      ],
      "min": [
        -1,
        -0.98480778932571411,
        0
      ],
      "type": "VEC3"
    },
    {
      "bufferView": 3,
      "byteOffset": 2320,
      "componentType": 5126,
      "count": 56,
      "max": [
        1.2251410020809616e-31,
        0.00013492853031493723,
        1,
        -1
      ],
      "min": [
        -1,
        -0.00022616927162744105,
        0,
        -1
      ],
      "type": "VEC4"
    },
    {
      "bufferView": 1,
      "byteOffset": 1160,
      "componentType": 5126,
      "count": 56,
      "max": [
        0.95231801271438599,
        0.22890299558639526
      ],
      "min": [
        0.05078129842877388,
        0
      ],
      "type": "VEC2"
    },
    {
      "bufferView": 0,
      "byteOffset": 3168,
      "componentType": 5125,
      "count": 156,
      "max": [
        55
      ],
      "min": [
        0
      ],
      "type": "SCALAR"
    },
    {
      "bufferView": 2,
      "byteOffset": 4824,
      "componentType": 5126,
      "count": 1534,
      "max": [
        0.44670999050140381,
        -0.34183898568153381,
        0.65613198280334473
      ],
      "min": [
        -0.4411889910697937,
        -0.59749799966812134,
        -0.84808802604675293
      ],
      "type": "VEC3"
    },
    {
      "bufferView": 2,
      "byteOffset": 23232,
      "componentType": 5126,
      "count": 1534,
      "max": [
        1,
        0.99977010488510132,
        0.99977010488510132
      ],
      "min": [
        -1,
        -0.99977010488510132,
        -0.99977010488510132
      ],
      "type": "VEC3"
    },
    {
      "bufferView": 3,
      "byteOffset": 3216,
      "componentType": 5126,
      "count": 1534,
      "max": [
        1,
        0.99977016448974609,
        1,
        1
      ],
      "min": [
        -1,
        -0.99977016448974609,
        -1,
        -1
      ],
      "type": "VEC4"
    },
    {
      "bufferView": 1,
      "byteOffset": 1608,
      "componentType": 5126,
      "count": 1534,
      "max": [
        0.94302797317504883,
        0.47853299975395203
      ],
      "min": [
        0.52832001447677612,
        0
      ],
      "type": "VEC2"
    },
    {
      "bufferView": 0,
      "byteOffset": 3792,
      "componentType": 5125,
      "count": 6216,
      "max": [
        1533
      ],
      "min": [
        0
      ],
      "type": "SCALAR"
    },
    {
      "bufferView": 2,
      "byteOffset": 41640,
      "componentType": 5126,
      "count": 2568,
      "max": [
        0.4512450098991394,
        -0.19079700112342834,
        0.80816197395324707
      ],
      "min": [
        -0.4512450098991394,
        -0.75034099817276001,
        -1
      ],
      "type": "VEC3"
    },
    {
      "bufferView": 2,
      "byteOffset": 72456,
      "componentType": 5126,
      "count": 2568,
      "max": [
        0.99869900941848755,
        0.9995802640914917,
        0.998679518699646
      ],
      "min": [
        -0.99869900941848755,
        -0.9995802640914917,
        -0.998679518699646
      ],
      "type": "VEC3"
    },
    {
      "bufferView": 3,
      "byteOffset": 27760,
      "componentType": 5126,
      "count": 2568,
      "max": [
        0.99979567527770996,
        0.99955040216445923,
        0.99938923120498657,
        1
      ],
      "min": [
        -0.99974524974822998,
        -0.96336609125137329,
        -0.87513613700866699,
        1
      ],
      "type": "VEC4"
    },
    {
      "bufferView": 1,
      "byteOffset": 13880,
      "componentType": 5126,
      "count": 2568,
      "max": [
        0.98677200078964233,
        0.65666598081588745
      ],
      "min": [
        0.02148439921438694,
        0
      ],
      "type": "VEC2"
    },
    {
      "bufferView": 0,
      "byteOffset": 28656,
      "componentType": 5125,
      "count": 7632,
      "max": [
        2567
      ],
      "min": [
        0
      ],
      "type": "SCALAR"
    },
    {
      "bufferView": 2,
      "byteOffset": 103272,
      "componentType": 5126,
      "count": 250,
      "max": [
        0.17384900152683258,
        0.75033998489379883,
        -0.049774300307035446
      ],
      "min": [
        -0.16832800209522247,
        0.31834301352500916,
        -0.39195099472999573
      ],
      "type": "VEC3"
    },
    {
      "bufferView": 2,
      "byteOffset": 106272,
      "componentType": 5126,
      "count": 250,
      "max": [
        1,
        1,
        1
      ],
      "min": [
        -1,
        -1,
        -1
      ],
      "type": "VEC3"
    },
    {
      "bufferView": 3,
      "byteOffset": 68848,
      "componentType": 5126,
      "count": 250,
      "max": [
        0.99998730421066284,
        0.10426133871078491,
        1,
        1
      ],
      "min": [
        -1,
        -0.046424698084592819,
        -0.99998736381530762,
        1
      ],
      "type": "VEC4"
    },
    {
      "bufferView": 1,
      "byteOffset": 34424,
      "componentType": 5126,
      "count": 250,
      "max": [
        0.83627200126647949,
        0.83312499523162842
      ],
      "min": [
        0,
        0
      ],
      "type": "VEC2"
    },
    {
      "bufferView": 0,
      "byteOffset": 59184,
      "componentType": 5125,
      "count": 1008,
      "max": [
        249
      ],
      "min": [
        0
      ],
      "type": "SCALAR"
    },
    {
      "bufferView": 2,
      "byteOffset": 109272,
      "componentType": 5126,
      "count": 44,
      "max": [
        0.36346998810768127,
        0.62355899810791016,
        0.88901299238204956
      ],
      "min": [
        -0.35794898867607117,
        -0.097860202193260193,
        0.27858099341392517
      ],
      "type": "VEC3"
    },
    {
      "bufferView": 2,
      "byteOffset": 109800,
      "componentType": 5126,
      "count": 44,
      "max": [
        1,
        1,
        1
      ],
      "min": [
        -1,
        -1,
        -1
      ],
      "type": "VEC3"
    },
    {
      "bufferView": 3,
      "byteOffset": 72848,
      "componentType": 5126,
      "count": 44,
      "max": [
        0,
        1,
        1,
        1
      ],
      "min": [
        0,
        -1,
        -1,
        1
      ],
      "type": "VEC4"
    },
    {
      "bufferView": 1,
      "byteOffset": 36424,
      "componentType": 5126,
      "count": 44,
      "max": [
        0.96072202920913696,
        0.90747898817062378
      ],
      "min": [
        0.33300799131393433,
        0.39746099710464478
      ],
      "type": "VEC2"
    },
    {
      "bufferView": 0,
      "byteOffset": 63216,
      "componentType": 5125,
      "count": 84,
      "max": [
        43
      ],
      "min": [
        0
      ],
      "type": "SCALAR"
    },
    {
      "bufferView": 2,
      "byteOffset": 110328,
      "componentType": 5126,
      "count": 136,
      "max": [
        0.28022900223731995,
        0.37383699417114258,
        0.27858099341392517
      ],
      "min": [
        -0.27470800280570984,
        -0.097860202193260193,
        -0.88678699731826782
      ],
      "type": "VEC3"
    },
    {
      "bufferView": 2,
      "byteOffset": 111960,
      "componentType": 5126,
      "count": 136,
      "max": [
        0.99999862909317017,
        1,
        1
      ],
      "min": [
        -0.99999862909317017,
        -1,
        -1
      ],
      "type": "VEC3"
    },
    {
      "bufferView": 3,
      "byteOffset": 73552,
      "componentType": 5126,
      "count": 136,
      "max": [
        1,
        0.99999862909317017,
        0.022610319778323174,
        1
      ],
      "min": [
        -1,
        -0.99999862909317017,
        -4.2493895307416096e-05,
        1
      ],
      "type": "VEC4"
    },
    {
      "bufferView": 1,
      "byteOffset": 36776,
      "componentType": 5126,
      "count": 136,
      "max": [
        0.97257101535797119,
        0.99923402070999146
      ],
      "min": [
        0.02148439921438694,
        0.52832001447677612
      ],
      "type": "VEC2"
    },
    {
      "bufferView": 0,
      "byteOffset": 63552,
      "componentType": 5125,
      "count": 384,
      "max": [
        135
      ],
      "min": [
        0
      ],
      "type": "SCALAR"
    },
    {
      "bufferView": 2,
      "byteOffset": 113592,
      "componentType": 5126,
      "count": 24,
      "max": [
        0.28022900223731995,
        -0.097860202193260193,
        0.77802497148513794
      ],
      "min": [
        -0.27470800280570984,
        -0.65279799699783325,
        -0.886788010597229
      ],
      "type": "VEC3"
    },
    {
      "bufferView": 2,
      "byteOffset": 113880,
      "componentType": 5126,
      "count": 24,
      "max": [
        1,
        1,
        1
      ],
      "min": [
        -1,
        -1,
        -1
      ],
      "type": "VEC3"
    },
    {
      "bufferView": 3,
      "byteOffset": 75728,
      "componentType": 5126,
      "count": 24,
      "max": [
        0,
        1,
        0,
        1
      ],
      "min": [
        -6.2774134335086273e-08,
        -1,
        -1,
        1
      ],
      "type": "VEC4"
    },
    {
      "bufferView": 1,
      "byteOffset": 37864,
      "componentType": 5126,
      "count": 24,
      "max": [
        0.65386897325515747,
        0.52309501171112061
      ],
      "min": [
        0,
        0
      ],
      "type": "VEC2"
    },
    {
      "bufferView": 0,
      "byteOffset": 65088,
      "componentType": 5125,
      "count": 36,
      "max": [
        23
      ],
      "min": [
        0
      ],
      "type": "SCALAR"
    }
  ],
  "asset": {
    "extras": {
      "author": "Geug (https://sketchfab.com/Geug)",
      "license": "CC-BY-4.0 (http://creativecommons.org/licenses/by/4.0/)",
      "source": "https://sketchfab.com/3d-models/toy-train-freebie-530a962cde764e04a6ca4a144f31757e",
      "title": "Toy Train Freebie"
    },
    "generator": "Sketchfab-8.10.0",
    "version": "2.0"
  },
  "bufferViews": [
    {
      "buffer": 0,
      "byteLength": 65232,
      "byteOffset": 0,
      "name": "floatBufferViews",
      "target": 34963
    },
    {
      "buffer": 0,
      "byteLength": 38056,
      "byteOffset": 65232,
      "byteStride": 8,
      "name": "floatBufferViews",
      "target": 34962
    },
    {
      "buffer": 0,
      "byteLength": 114168,
      "byteOffset": 103288,
      "byteStride": 12,
      "name": "floatBufferViews",
      "target": 34962
    },
    {
      "buffer": 0,
      "byteLength": 76112,
      "byteOffset": 217456,
      "byteStride": 16,
      "name": "floatBufferViews",
      "target": 34962
    }
  ],
  "buffers": [
    {
      "byteLength": 293568,
      "uri": "scene.bin"
    }
  ],
  "images": [
    {
      "uri": "textures/1001_baseColor.jpeg"
    },
    {
      "uri": "textures/1001_metallicRoughness.png"
    },
    {
      "uri": "textures/1001_normal.jpeg"
    }
  ],
  "materials": [
    {
      "doubleSided": false,
      "name": "1001",
      "normalTexture": {
        "index": 2,
        "scale": 1,
        "texCoord": 0
      },
      "pbrMetallicRoughness": {
        "baseColorFactor": [
          1,
          1,
          1,
          1
        ],
        "baseColorTexture": {
          "index": 0,
          "texCoord": 0
        },
        "metallicFactor": 1,
        "metallicRoughnessTexture": {
          "index": 1,
          "texCoord": 0
        },
        "roughnessFactor": 1
      }
    }
  ],
  "meshes": [
    {
      "name": "defaultMaterial",
      "primitives": [
        {
          "attributes": {
            "NORMAL": 1,
            "POSITION": 0,
            "TANGENT": 2,
            "TEXCOORD_0": 3
          },
          "indices": 4,
          "material": 0,
          "mode": 4
        }
      ]
    },
    {
      "name": "defaultMaterial",
      "primitives": [
        {
          "attributes": {
            "NORMAL": 6,
            "POSITION": 5,
            "TANGENT": 7,
            "TEXCOORD_0": 8
          },
          "indices": 9,
          "material": 0,
          "mode": 4
        }
      ]
    },
    {
      "name": "defaultMaterial",
      "primitives": [
        {
          "attributes": {
            "NORMAL": 11,
            "POSITION": 10,
            "TANGENT": 12,
            "TEXCOORD_0": 13
          },
          "indices": 14,
          "material": 0,
          "mode": 4
        }
      ]
    },
    {
      "name": "defaultMaterial",
      "primitives": [
        {
          "attributes": {
            "NORMAL": 16,
            "POSITION": 15,
            "TANGENT": 17,
            "TEXCOORD_0": 18
          },
          "indices": 19,
          "material": 0,
          "mode": 4
        }
      ]
    },
    {
      "name": "defaultMaterial",
      "primitives": [
        {
          "attributes": {
            "NORMAL": 21,
            "POSITION": 20,
            "TANGENT": 22,
            "TEXCOORD_0": 23
          },
          "indices": 24,
          "material": 0,
          "mode": 4
        }
      ]
    },
    {
      "name": "defaultMaterial",
      "primitives": [
        {
          "attributes": {
            "NORMAL": 26,
            "POSITION": 25,
            "TANGENT": 27,
            "TEXCOORD_0": 28
          },
          "indices": 29,
          "material": 0,
          "mode": 4
        }
      ]
    },
    {
      "name": "defaultMaterial",
      "primitives": [
        {
          "attributes": {
            "NORMAL": 31,
            "POSITION": 30,
            "TANGENT": 32,
            "TEXCOORD_0": 33
          },
          "indices": 34,
          "material": 0,
          "mode": 4
        }
      ]
    },
    {
      "name": "defaultMaterial",
      "primitives": [
        {
          "attributes": {
            "NORMAL": 36,
            "POSITION": 35,
            "TANGENT": 37,
            "TEXCOORD_0": 38
          },
          "indices": 39,
          "material": 0,
          "mode": 4
        }
      ]
    }
  ],
  "nodes": [
    {
      "children": [
        1
      ],
      "name": "RootNode (gltf orientation matrix)",
      "rotation": [
        -0.70710678118654746,
        -0,
        -0,
        0.70710678118654757
      ]
    },
    {
      "children": [
        2
      ],
      "name": "RootNode (model correction matrix)"
    },
    {
      "children": [
        3,
        5,
        7,
        9,
        11,
        13,
        15,
        17
      ],
      "matrix": [
        1,
        0,
        0,
        0,
        0,
        -4.3711390063094768e-08,
        0.999999999999999,
        0,
        0,
        -0.999999999999999,
        -4.3711390063094768e-08,
        0,
        0,
        0,
        0,
        1
      ],
      "name": "Collada visual scene group"
    },
    {
      "children": [
        4
      ],
      "name": "g"
    },
    {
      "mesh": 0,
      "name": "defaultMaterial"
    },
    {
      "children": [
        6
      ],
      "name": "g"
    },
    {
      "mesh": 1,
      "name": "defaultMaterial"
    },
    {
      "children": [
        8
      ],
      "name": "g"
    },
    {
      "mesh": 2,
      "name": "defaultMaterial"
    },
    {
      "children": [
        10
      ],
      "name": "g"
    },
    {
      "mesh": 3,
      "name": "defaultMaterial"
    },
    {
      "children": [
        12
      ],
      "name": "g"
    },
    {
      "mesh": 4,
      "name": "defaultMaterial"
    },
    {
      "children": [
        14
      ],
      "name": "g"
    },
    {
      "mesh": 5,
      "name": "defaultMaterial"
    },
    {
      "children": [
        16
      ],
      "name": "g"
    },
    {
      "mesh": 6,
      "name": "defaultMaterial"
    },
    {
      "children": [
        18
      ],
      "name": "g"
    },
    {
      "mesh": 7,
      "name": "defaultMaterial"
    }
  ],
  "samplers": [
    {
      "magFilter": 9729,
      "minFilter": 9987,
      "wrapS": 10497,
      "wrapT": 10497
    }
  ],
  "scene": 0,
  "scenes": [
    {
      "name": "OSG_Scene",
      "nodes": [
        0
      ]
    }
  ],
  "textures": [
    {
      "sampler": 0,
      "source": 0
    },
    {
      "sampler": 0,
      "source": 1
    },
    {
      "sampler": 0,
      "source": 2
    }
  ]
}

